# xmcd CD database file
#
# Track frame offsets:
#	150
#	9002
#	25436
#	45647
#	69560
#	80871
#
# Disc length: 1124 seconds
#
# Revision: 4
# Processed by: cddbd v1.4PL0 Copyright (c) Steve Scherf et al.
# Submitted via: CDex 1.51
#
DISCID=44046206
DTITLE=Handsome Hank and his Lonesome Boys - The White Album
DYEAR=2003
DGENRE=Country
TTITLE0=Jingle bells
TTITLE1=Cold Turkey
TTITLE2=Chistmas Tree´s on Fire
TTITLE3=Santa Claus is homeless
TTITLE4=Chistmas will be cancelled this Year
TTITLE5=Happy Birthday, D.J.
EXTD=YEAR: 2003
EXTT0=
EXTT1=
EXTT2=
EXTT3=
EXTT4=
EXTT5=
PLAYORDER=
